<svg width="23" height="25" viewBox="0 0 23 25" fill="none" xmlns="http://www.w3.org/2000/svg">
<path d="M11.3302 20.6105C11.8204 20.6105 12.5 18.75 12.5 15.742V8.72326C14.3828 8.21078 15.7531 6.48396 15.7531 4.44519C15.7531 1.99421 13.7923 0 11.3302 0C8.87923 0 6.91845 1.99421 6.91845 4.44519C6.91845 6.47282 8.27763 8.19964 10.1604 8.71212V15.742C10.1604 18.7389 10.8512 20.6105 11.3302 20.6105ZM10.0824 4.69029C9.2803 4.69029 8.56729 3.98841 8.56729 3.16399C8.56729 2.35071 9.2803 1.65998 10.0824 1.65998C10.918 1.65998 11.5976 2.35071 11.5976 3.16399C11.5976 3.98841 10.918 4.69029 10.0824 4.69029ZM11.3302 25C18.4158 25 22.6604 22.6159 22.6604 19.8752C22.6604 16.8783 18.0704 14.9398 14.4051 14.7839V16.7781C16.9006 16.8895 20.1203 18.037 20.1203 19.6524C20.1203 21.5686 16.4216 22.8944 11.3302 22.8944C6.23886 22.8944 2.55125 21.5798 2.55125 19.6524C2.55125 18.037 5.77095 16.8895 8.25535 16.7781V14.7839C4.59002 14.9398 0 16.8783 0 19.8752C0 22.6159 4.24465 25 11.3302 25Z" fill="#FF2D55"/>
</svg>

