<svg width="167" height="279" viewBox="0 0 167 279" fill="none" xmlns="http://www.w3.org/2000/svg">
<path d="M0.443359 96.7985C0.443359 43.5983 37.6328 0.456055 83.5048 0.456055C129.366 0.456055 166.555 43.5983 166.555 96.8018C166.555 114.367 162.478 130.786 155.397 144.971L91.4104 273.574C88.1128 280.201 78.8857 280.201 75.5882 273.574L11.6019 144.968C4.52013 130.786 0.443359 114.364 0.443359 96.7985Z" fill="#FF9500"/>
<path d="M83.1719 76.1635C90.4214 76.1635 96.3082 70.1677 96.3082 63.1908C96.3082 55.8868 90.4214 50 83.1719 50C75.9224 50 70.1992 55.8868 70.1992 63.1908C70.1992 70.1677 75.9224 76.1635 83.1719 76.1635ZM101.759 180C104.866 180 107.646 177.711 107.646 173.895C107.646 172.478 107.264 171.17 106.501 169.644L94.8365 145.987C93.8008 143.862 92.6017 141.954 91.5115 140.428L84.3711 130.289L84.8071 128.927C86.7694 122.658 87.5325 118.843 87.9685 112.847L89.1677 96.0042C89.7673 87.7191 84.9706 80.9602 76.304 80.9602C69.9811 80.9602 65.4025 84.3941 59.5157 90.1174L50.5765 99.0021C47.5241 102 46.543 104.453 46.2704 108.268L45.1258 122.113C44.8532 125.874 46.979 128.327 50.3585 128.545C53.5744 128.763 55.9727 126.855 56.3543 122.822L57.608 107.669L62.8952 102.981C63.8763 102.109 65.2935 102.6 65.1845 104.071L64.2034 117.698C63.7128 124.293 66.6017 129.09 69.8721 133.178L81.5367 147.841C82.6813 149.258 82.8449 149.803 83.3899 150.839L95.8176 176.075C97.2893 179.019 99.4696 180 101.759 180ZM104.321 115.627H117.512C121.327 115.627 123.725 113.392 123.725 110.013C123.725 106.633 121.273 104.398 117.457 104.398H103.667L94.0734 93.9874L93.0377 108.977L97.1258 113.065C99.088 115.027 100.941 115.627 104.321 115.627ZM48.8868 180C50.7945 180 52.4843 179.128 53.6834 177.711L71.2348 156.834C73.0335 154.654 73.2516 154.109 74.0147 151.983C74.4507 150.566 74.8323 149.203 75.1593 147.895L65.13 135.358L62.1866 149.04L45.5618 168.771C44.0356 170.516 43 172.042 43 174.222C43 177.602 45.5618 180 48.8868 180Z" fill="white"/>
</svg>
