<svg width="168" height="279" viewBox="0 0 168 279" fill="none" xmlns="http://www.w3.org/2000/svg">
<rect x="41.3066" y="40.5718" width="85.2766" height="149.523" fill="white"/>
<path d="M84.0614 0C38.1894 0 1 43.1423 1 96.3425C1 113.908 5.07677 130.329 12.1585 144.512L76.1448 273.117C79.4423 279.745 88.6695 279.745 91.9671 273.118L155.953 144.515C163.035 130.329 167.112 113.911 167.112 96.3457C167.112 43.1423 129.922 0 84.0614 0ZM94.666 172.154C94.666 177.189 90.6889 181.271 85.783 181.271H81.2015C76.2956 181.271 72.3185 177.189 72.3185 172.154V164.966C72.3185 159.931 76.2956 155.849 81.2015 155.849H85.783C90.6889 155.849 94.666 159.931 94.666 164.966V172.154ZM122.752 95.8381C121.367 99.8119 119.658 103.207 117.614 106.025C115.571 108.845 113.305 111.248 110.821 113.233C108.336 115.222 105.988 117.207 103.778 119.189C101.568 121.177 99.6068 123.452 97.8953 126.012C96.1837 128.576 95.1036 131.778 94.666 135.623C94.666 139.656 91.4809 142.925 87.5519 142.925H80.7191C76.0658 142.925 72.2936 139.054 72.2936 134.278C72.6259 128.771 73.5371 124.158 75.0271 120.439C76.5199 116.722 78.2592 113.551 80.2477 110.923C82.2363 108.299 84.3328 106.021 86.5429 104.1C88.753 102.179 90.7969 100.255 92.6747 98.3342C94.5524 96.4132 96.0729 94.2994 97.2333 91.9897C98.3938 89.6832 98.9172 86.8017 98.8065 83.342C98.8065 77.4505 97.5657 73.0945 95.0786 70.274C92.5944 67.4568 89.138 66.0465 84.7205 66.0465C81.735 66.0465 79.1676 66.7179 77.0129 68.0639C74.8582 69.4067 73.0912 71.2056 71.7092 73.4446C70.3272 75.6869 69.3053 78.3146 68.6433 81.3246C68.5963 81.5388 68.5509 81.7541 68.5072 81.9704C67.5111 86.9009 63.672 91.0292 58.7661 91.0292H52.3211C47.3581 91.0292 43.2774 86.8339 44.0294 81.7988C44.542 78.3669 45.3178 75.1015 46.3568 72.0023C48.2872 66.2361 50.9958 61.2376 54.4771 57.0101C57.9584 52.7826 62.1543 49.4835 67.0702 47.1095C71.9834 44.742 77.481 43.5534 83.5573 43.5534C91.4035 43.5534 97.9479 44.8031 103.196 47.3023C108.442 49.8015 112.668 52.9079 115.872 56.6246C119.074 60.3413 121.364 64.344 122.749 68.6357C124.128 72.9307 124.818 76.9333 124.818 80.65C124.821 86.8049 124.131 91.8676 122.752 95.8381Z" fill="#9A99EE"/>
</svg>

