<svg width="171" height="285" viewBox="0 0 171 285" fill="none" xmlns="http://www.w3.org/2000/svg">
<rect x="41.1504" y="17.7534" width="88.7005" height="188.747" fill="#EDEDED"/>
<path fill-rule="evenodd" clip-rule="evenodd" d="M85.5057 0C38.2838 0 0 44.2145 0 98.737C0 116.739 4.19674 133.569 11.4869 148.104L77.3561 279.906C80.7507 286.698 90.2494 286.698 93.644 279.906L159.513 148.107C166.803 133.569 171 116.742 171 98.7403C171 44.2145 132.716 0 85.5057 0Z" fill="#FF9500"/>
<path d="M66.675 170.059C68.5643 170.059 70.023 169.773 70.023 167.785V102.727C71.0603 102.345 74.172 101.198 78.8766 101.198C92.3608 101.198 101.4 108.155 114.439 108.155C120.144 108.155 122.774 107.428 125.627 106.052C128.294 104.829 129.85 102.574 129.85 99.0573V60.9859C129.85 58.4631 127.96 56.8959 125.441 56.8959C123.33 56.8959 119.996 58.3484 114.069 58.3484C101.177 58.3484 91.9533 51.3916 78.5062 51.3916C72.9125 51.3916 70.3564 52.1179 67.3558 53.4939C64.7257 54.7553 63.0957 56.743 63.0957 60.2214V167.785C63.0957 169.734 64.7858 170.059 66.675 170.059Z" fill="white"/>
</svg>

