<svg width="16" height="25" viewBox="0 0 16 25" fill="none" xmlns="http://www.w3.org/2000/svg">
<path d="M7.72537 5.03145C9.1195 5.03145 10.2516 3.87841 10.2516 2.53669C10.2516 1.13208 9.1195 0 7.72537 0C6.33124 0 5.23061 1.13208 5.23061 2.53669C5.23061 3.87841 6.33124 5.03145 7.72537 5.03145ZM11.2998 25C11.8973 25 12.4319 24.5597 12.4319 23.826C12.4319 23.5535 12.3585 23.3019 12.2117 23.0084L9.96855 18.4591C9.76939 18.0503 9.53878 17.6834 9.32914 17.3899L7.95597 15.4403L8.03983 15.1782C8.41719 13.9727 8.56394 13.239 8.6478 12.086L8.87841 8.84696C8.99371 7.25367 8.07128 5.95388 6.40461 5.95388C5.18868 5.95388 4.30818 6.61426 3.1761 7.71489L1.45702 9.42348C0.870021 10 0.681342 10.4717 0.628931 11.2055L0.408805 13.8679C0.356394 14.5912 0.765199 15.0629 1.41509 15.1048C2.03354 15.1468 2.49476 14.7799 2.56813 14.0042L2.80922 11.0901L3.826 10.1887C4.01467 10.021 4.28721 10.1153 4.26625 10.3983L4.07757 13.0189C3.98323 14.2872 4.53878 15.2096 5.16771 15.9958L7.4109 18.8155C7.63103 19.0881 7.66247 19.1929 7.7673 19.392L10.1572 24.2453C10.4403 24.8113 10.8595 25 11.2998 25ZM11.7925 12.6205H14.3291C15.0629 12.6205 15.5241 12.1908 15.5241 11.5409C15.5241 10.891 15.0524 10.4612 14.3187 10.4612H11.6667L9.8218 8.45912L9.62264 11.3417L10.4088 12.1279C10.7862 12.5052 11.1426 12.6205 11.7925 12.6205ZM1.13208 25C1.49895 25 1.8239 24.8323 2.05451 24.5597L5.42977 20.5451C5.77568 20.1258 5.81761 20.021 5.96436 19.6122C6.04822 19.3396 6.12159 19.0776 6.18449 18.826L4.25576 16.4151L3.68973 19.0461L0.492662 22.8407C0.199161 23.1761 0 23.4696 0 23.8889C0 24.5388 0.492662 25 1.13208 25Z" fill="white"/>
</svg>

