<svg width="167" height="279" viewBox="0 0 167 279" fill="none" xmlns="http://www.w3.org/2000/svg">
<path d="M0 96.3425C0 43.1423 37.1894 0 83.0614 0C128.922 0 166.112 43.1423 166.112 96.3457C166.112 113.911 162.035 130.329 154.953 144.515L90.9671 273.118C87.6695 279.745 78.4423 279.745 75.1448 273.117L11.1585 144.512C4.07677 130.329 0 113.908 0 96.3425Z" fill="#FCB24A"/>
<path d="M89.1719 65.1635C96.4214 65.1635 102.308 59.1677 102.308 52.1908C102.308 44.8868 96.4214 39 89.1719 39C81.9224 39 76.1992 44.8868 76.1992 52.1908C76.1992 59.1677 81.9224 65.1635 89.1719 65.1635ZM107.759 169C110.866 169 113.646 166.711 113.646 162.895C113.646 161.478 113.264 160.17 112.501 158.644L100.836 134.987C99.8008 132.862 98.6017 130.954 97.5115 129.428L90.3711 119.289L90.8071 117.927C92.7694 111.658 93.5325 107.843 93.9685 101.847L95.1677 85.0042C95.7673 76.7191 90.9706 69.9602 82.304 69.9602C75.9811 69.9602 71.4025 73.3941 65.5157 79.1174L56.5765 88.0021C53.5241 91 52.543 93.4528 52.2704 97.2683L51.1258 111.113C50.8532 114.874 52.979 117.327 56.3585 117.545C59.5744 117.763 61.9727 115.855 62.3543 111.822L63.608 96.6688L68.8952 91.9811C69.8763 91.109 71.2935 91.5996 71.1845 93.0713L70.2034 106.698C69.7128 113.293 72.6017 118.09 75.8721 122.178L87.5367 136.841C88.6813 138.258 88.8449 138.803 89.3899 139.839L101.818 165.075C103.289 168.019 105.47 169 107.759 169ZM110.321 104.627H123.512C127.327 104.627 129.725 102.392 129.725 99.0126C129.725 95.6331 127.273 93.3983 123.457 93.3983H109.667L100.073 82.9874L99.0377 97.9769L103.126 102.065C105.088 104.027 106.941 104.627 110.321 104.627ZM54.8868 169C56.7945 169 58.4843 168.128 59.6834 166.711L77.2348 145.834C79.0335 143.654 79.2516 143.109 80.0147 140.983C80.4507 139.566 80.8323 138.203 81.1593 136.895L71.13 124.358L68.1866 138.04L51.5618 157.771C50.0356 159.516 49 161.042 49 163.222C49 166.602 51.5618 169 54.8868 169Z" fill="white"/>
</svg>
