<svg width="167" height="279" viewBox="0 0 167 279" fill="none" xmlns="http://www.w3.org/2000/svg">
<rect x="41.3066" y="40.5718" width="85.2766" height="149.523" fill="#EDEDED"/>
<path d="M83.5048 0.456055C37.6328 0.456055 0.443359 43.5983 0.443359 96.7985C0.443359 114.364 4.52013 130.786 11.6019 144.968L75.5882 273.574C78.8857 280.201 88.1128 280.201 91.4104 273.574L155.397 144.971C162.478 130.786 166.555 114.367 166.555 96.8018C166.555 43.5983 129.366 0.456055 83.5048 0.456055ZM94.1093 172.61C94.1093 177.645 90.1323 181.727 85.2264 181.727H80.6449C75.7389 181.727 71.7619 177.646 71.7619 172.61V165.422C71.7619 160.387 75.7389 156.305 80.6449 156.305H85.2264C90.1323 156.305 94.1093 160.387 94.1093 165.422V172.61ZM122.195 96.2942C120.811 100.268 119.102 103.663 117.058 106.481C115.014 109.301 112.748 111.704 110.264 113.689C107.78 115.678 105.431 117.663 103.221 119.645C101.011 121.633 99.0502 123.908 97.3386 126.468C95.627 129.032 94.5469 132.234 94.1093 136.08C94.1093 140.112 90.9242 143.381 86.9952 143.381H80.1624C75.5092 143.381 71.737 139.51 71.737 134.734C72.0693 129.228 72.9805 124.615 74.4705 120.895C75.9633 117.178 77.7026 114.007 79.6911 111.38C81.6796 108.755 83.7762 106.477 85.9863 104.556C88.1964 102.635 90.2403 100.711 92.118 98.7902C93.9958 96.8692 95.5163 94.7555 96.6767 92.4458C97.8371 90.1393 98.3606 87.2578 98.2498 83.798C98.2498 77.9065 97.0091 73.5506 94.522 70.7301C92.0377 67.9128 88.5813 66.5026 84.1639 66.5026C81.1783 66.5026 78.611 67.174 76.4563 68.52C74.3016 69.8627 72.5346 71.6617 71.1526 73.9007C69.7706 76.1429 68.7486 78.7707 68.0867 81.7807C68.0397 81.9948 67.9943 82.2101 67.9506 82.4265C66.9544 87.3569 63.1154 91.4853 58.2095 91.4853H51.7644C46.8014 91.4853 42.7208 87.29 43.4728 82.2549C43.9854 78.8229 44.7612 75.5576 45.8002 72.4583C47.7306 66.6921 50.4392 61.6937 53.9205 57.4662C57.4018 53.2387 61.5977 49.9396 66.5136 47.5656C71.4268 45.1981 76.9243 44.0095 83.0007 44.0095C90.8468 44.0095 97.3913 45.2591 102.64 47.7583C107.885 50.2576 112.111 53.364 115.316 57.0807C118.517 60.7974 120.808 64.8 122.193 69.0918C123.572 73.3867 124.261 77.3893 124.261 81.1061C124.264 87.261 123.575 92.3237 122.195 96.2942Z" fill="#5856D6"/>
</svg>

